<?xml version="1.0" standalone="no"?>
<!DOCTYPE svg PUBLIC "-//W3C//DTD SVG 20010904//EN"
 "http://www.w3.org/TR/2001/REC-SVG-20010904/DTD/svg10.dtd">
<svg version="1.0" xmlns="http://www.w3.org/2000/svg"
 width="707.000000pt" height="353.000000pt" viewBox="0 0 707.000000 353.000000"
 preserveAspectRatio="xMidYMid meet">

<g transform="translate(0.000000,353.000000) scale(0.100000,-0.100000)"
fill="#000000" stroke="none">
<path d="M1175 3219 c-262 -35 -451 -160 -550 -363 -62 -126 -85 -262 -85
-503 l0 -133 319 0 320 0 3 213 c3 239 11 268 76 309 47 29 121 30 160 2 56
-42 72 -80 72 -167 0 -146 -48 -259 -271 -632 -272 -454 -657 -1101 -668
-1122 -7 -14 -11 -90 -11 -217 l0 -196 790 0 790 0 0 230 0 230 -390 0 c-214
0 -390 2 -390 4 0 3 67 116 148 253 567 949 575 962 626 1114 49 145 57 352
21 495 -28 109 -72 183 -160 270 -97 97 -197 151 -350 190 -114 28 -330 40
-450 23z"/>
<path d="M2342 2928 l3 -243 318 -3 c194 -1 317 -6 317 -12 0 -9 -34 -174
-145 -700 -30 -140 -82 -385 -115 -545 -128 -605 -180 -852 -195 -915 -8 -36
-14 -73 -15 -82 0 -17 24 -18 375 -18 248 0 375 3 375 10 0 10 48 275 171 940
33 179 85 456 114 615 29 160 65 351 79 425 24 127 26 154 26 453 l0 317 -655
0 -655 0 2 -242z"/>
<path d="M3722 2893 l3 -278 208 -3 c155 -2 207 -5 207 -15 1 -6 0 -494 0
-1083 0 -589 2 -1078 6 -1087 6 -15 38 -17 355 -17 l349 0 0 38 c0 20 0 515 0
1099 l0 1063 212 2 213 3 3 278 2 277 -780 0 -780 0 2 -277z"/>
<path d="M5372 1793 l3 -1378 618 -3 617 -2 0 280 0 280 -260 0 c-201 0 -260
3 -260 13 -1 6 -1 140 -1 297 l1 285 227 5 228 5 0 265 0 265 -227 3 -228 2
-2 153 c-2 124 -1 233 2 334 0 10 59 13 243 15 l242 3 3 278 2 277 -605 0
-605 0 2 -1377z"/>
</g>
</svg>
